<?xml version="1.0" encoding="utf-8"?>
<!-- Generator: Adobe Illustrator 18.0.0, SVG Export Plug-In . SVG Version: 6.00 Build 0)  -->
<!DOCTYPE svg PUBLIC "-//W3C//DTD SVG 1.1//EN" "http://www.w3.org/Graphics/SVG/1.1/DTD/svg11.dtd">
<svg version="1.1" id="Layer_1" xmlns="http://www.w3.org/2000/svg" xmlns:xlink="http://www.w3.org/1999/xlink" x="0px" y="0px"
	 viewBox="-0.1 330.7 595.3 180.5" enable-background="new -0.1 330.7 595.3 180.5" xml:space="preserve">
<g>
	<g>
		<path fill="none" d="M22.2,427.9c0-12.4-9.8-22.7-22.2-23.2v46.4C12.4,450.6,22.2,440.5,22.2,427.9z"/>
		<path fill="none" d="M109.6,330.7h-41c30.2,21.7,50,57.3,50,97.2c0,32.2-12.9,61.6-33.8,83.3h35.6c16.2-23.7,25.8-52.4,25.8-83.3
			C146.5,390.8,132.6,356.7,109.6,330.7z"/>
		<path fill="none" d="M181.1,427.9c0,29.9-7.2,58.3-20.1,83.3h54.2V330.7h-62.4C170.7,358.8,181.1,392.3,181.1,427.9z"/>
		<path fill="none" d="M84.1,427.9c0-46.4-37.7-84.3-84.1-85.1v27.1c31.5,0.5,57,26.3,57,58s-25.5,57.5-57,58v25.3h16.8
			C55.2,503,84.1,468.9,84.1,427.9z"/>
		<path fill="#F6F6F6" d="M68.6,330.7H0v12.1c46.4,0.5,84.1,38.4,84.1,85.1c0,40.8-28.9,75.1-67.3,83.3h68.1
			c20.9-21.7,33.8-50.8,33.8-83.3C118.6,387.9,98.8,352.3,68.6,330.7z"/>
		<path fill="#F6F6F6" d="M57,427.9c0-31.7-25.5-57.3-57-58v34.6c12.4,0.5,22.2,10.8,22.2,23.2c0,12.4-9.8,22.7-22.2,23.2v34.6
			C31.5,485.4,57,459.6,57,427.9z"/>
		<path fill="#F6F6F6" d="M152.7,330.7h-43.1c23,26,36.9,60.1,36.9,97.2c0,31-9.5,59.6-25.8,83.3h40.2c12.9-25,20.1-53.1,20.1-83.3
			C181.1,392.3,170.7,358.8,152.7,330.7z"/>
	</g>
	<g>
		<g>
			<path fill="#333333" d="M0,439.5l18.1-38.9c0.3-0.3,0.5-0.5,1-0.5h0.5c0.5,0,0.8,0.3,1,0.5l17.8,38.9c0.3,0.8,0,1.5-1,1.5h-5.2
				c-0.8,0-1.3-0.3-1.8-1l-2.8-6.2h-17l-2.8,5.9c-0.3,0.5-0.8,1-1.8,1H0.8C0.3,441.1-0.3,440.3,0,439.5z M25,427.1l-5.7-12.6h-0.3
				l-5.7,12.6H25z"/>
			<path fill="#333333" d="M57.3,400.8c0-0.5,0.5-0.8,1-0.8h1c0.5,0,0.8,0.3,1,0.5L73,427.9c0,0,0,0,0.3,0l12.6-27.3
				c0.3-0.3,0.5-0.5,1-0.5h0.8c0.5,0,1,0.5,1,0.8l6.7,38.9c0.3,0.8-0.3,1.3-1,1.3h-5.2c-0.5,0-1-0.5-1-0.8l-3.4-21.9h-0.3
				l-10.1,22.7c0,0.3-0.5,0.5-1,0.5h-1c-0.5,0-0.8-0.3-1-0.5l-10.3-22.7c0,0,0,0-0.3,0l-3.4,21.9c0,0.5-0.5,0.8-1,0.8h-5.2
				c-0.8,0-1.3-0.5-1-1.3L57.3,400.8z"/>
			<path fill="#333333" d="M112.7,401.6c0-0.5,0.5-1,1-1h13.7c7.2,0,12.9,5.7,12.9,12.9c0,7.2-5.9,12.9-12.9,12.9h-7.2V440
				c0,0.5-0.5,1-1,1h-5.4c-0.5,0-1-0.5-1-1V401.6z M126.9,419.1c3.4,0,5.9-2.6,5.9-5.9c0-3.1-2.8-5.7-5.9-5.7h-6.7v11.6H126.9z"/>
			<path fill="#333333" d="M156,401.6c0-0.5,0.5-1,1-1h5.4c0.5,0,1,0.5,1,1v32.5h14.7c0.5,0,1,0.5,1,1v4.6c0,0.5-0.5,1-1,1h-21.1
				c-0.5,0-1-0.5-1-1C156,439.8,156,401.6,156,401.6z"/>
			<path fill="#333333" d="M194.5,401.6c0-0.5,0.5-1,1-1h5.4c0.5,0,1,0.5,1,1V440c0,0.5-0.5,1-1,1h-5.4c-0.5,0-1-0.5-1-1V401.6z"/>
			<path fill="#333333" d="M221.6,401.6c0-0.5,0.5-1,1-1h23.5c0.5,0,1,0.5,1,1v4.6c0,0.5-0.5,1-1,1h-17v11.1h14.2c0.5,0,1,0.5,1,1
				v4.6c0,0.5-0.5,1-1,1H229v14.7c0,0.5-0.5,1-1,1h-5.4c-0.5,0-1-0.5-1-1V401.6z"/>
			<path fill="#333333" d="M272.1,421.5L259,402.1c-0.5-0.8,0-1.8,1-1.8h5.9c0.5,0,0.8,0.3,1,0.5l9.3,13.4l9.3-13.4
				c0.3-0.3,0.5-0.5,1-0.5h5.9c1,0,1.3,1,1,1.8l-13.4,19.3V440c0,0.5-0.5,1-1,1h-5.7c-0.5,0-1-0.5-1-1v-18.6H272.1z"/>
		</g>
		<g>
			<path fill="#333333" d="M323.4,400.3c5.9,0,10.3,2.1,14.2,5.4c0.3,0.3,0.3,0.8,0,1l-1,1c-0.3,0.3-0.5,0.3-1,0
				c-3.4-2.8-7.5-4.6-12.1-4.6c-10.1,0-18.1,8.3-18.1,18.3c0,10.1,8,18.1,18.1,18.1c4.9,0,8.8-2.1,12.1-4.9c0.3-0.3,0.8-0.3,1,0l1,1
				c0.3,0.3,0.3,0.8,0,1c-3.9,3.9-9,5.7-14.2,5.7c-11.6,0-20.9-9-20.9-20.9C302.5,409.6,311.8,400.3,323.4,400.3z"/>
			<path fill="#333333" d="M358.5,401.6c0-0.5,0.3-0.8,0.8-0.8h1.3c0.5,0,0.8,0.3,0.8,0.8v17.8h26v-17.8c0-0.5,0.3-0.8,0.8-0.8h1.3
				c0.5,0,0.8,0.3,0.8,0.8v38.9c0,0.5-0.3,0.8-0.8,0.8h-1.3c-0.5,0-0.8-0.3-0.8-0.8v-18.8h-26v18.8c0,0.5-0.3,0.8-0.8,0.8h-1.3
				c-0.5,0-0.8-0.3-0.8-0.8V401.6z"/>
			<path fill="#333333" d="M408,440.8l17.8-40.2c0-0.3,0.5-0.5,0.8-0.5h0.3c0.3,0,0.5,0,0.8,0.5l17.5,40.2c0,0.3,0,0.8-0.5,0.8h-1.5
				c-0.5,0-0.8-0.3-0.8-0.5l-4.6-10.6h-22.2l-4.6,10.6c0,0.3-0.5,0.5-0.8,0.5h-1.5C408,441.3,407.8,441.1,408,440.8z M436.7,427.9
				l-9.8-23.2l0,0l-10.1,23.2H436.7z"/>
			<path fill="#333333" d="M462.2,401.1c0-0.5,0.5-0.8,0.8-0.8h1l27.9,36.1l0,0v-34.8c0-0.5,0.3-0.8,0.8-0.8h1
				c0.5,0,0.8,0.3,0.8,0.8v39.7c0,0.5-0.5,0.8-1,0.8h-0.8c0,0-0.5-0.3-28.1-36.6l0,0v35.1c0,0.5-0.3,0.8-0.8,0.8h-1
				c-0.5,0-0.8-0.3-0.8-0.8v-39.5H462.2z"/>
			<path fill="#333333" d="M534.9,400.3c5.9,0,10.3,2.1,13.9,5.4c0.3,0.3,0.3,0.8,0,1s-0.5,0.8-1,1c-0.3,0.5-0.5,0.3-1,0
				c-3.4-3.1-7.5-4.9-12.1-4.9c-10.1,0-18.1,8.3-18.1,18.3c0,10.1,8,18.3,18.1,18.3c7,0,11.3-2.8,12.1-3.1v-10.8H537
				c-0.5,0-0.8-0.3-0.8-0.8v-1c0-0.5,0-0.8,0.8-0.8h11.9c0.5,0,0.8,0.3,0.8,0.8v13.4c0,0.8-0.3,1-0.8,1.5c-1,0.8-6.2,3.6-13.9,3.6
				c-11.6,0-20.9-9-20.9-20.9S523.3,400.3,534.9,400.3z"/>
			<path fill="#333333" d="M570.5,401.6c0-0.5,0.3-0.8,0.8-0.8h23.2c0.5,0,0.8,0.3,0.8,0.8v1c0,0.5-0.3,0.8-0.8,0.8h-21.1v16h18.3
				c0.5,0,0.8,0.3,0.8,0.8v1c0,0.5-0.3,0.8-0.8,0.8h-18.3v17h21.1c0.5,0,0.8,0.3,0.8,0.8v1c0,0.5-0.3,0.8-0.8,0.8h-23.2
				c-0.5,0-0.8-0.3-0.8-0.8V401.6z"/>
		</g>
	</g>
</g>
</svg>
